<svg width="29" height="29" viewBox="0 0 29 29" fill="none" xmlns="http://www.w3.org/2000/svg">
<g clip-path="url(#clip0_9_626)">
<path d="M16.3125 6.34375C16.3125 6.5841 16.217 6.81461 16.0471 6.98457C15.8771 7.15452 15.6466 7.25 15.4062 7.25C15.1659 7.25 14.9354 7.15452 14.7654 6.98457C14.5955 6.81461 14.5 6.5841 14.5 6.34375C14.5 6.1034 14.5955 5.87289 14.7654 5.70293C14.9354 5.53298 15.1659 5.4375 15.4062 5.4375C15.6466 5.4375 15.8771 5.53298 16.0471 5.70293C16.217 5.87289 16.3125 6.1034 16.3125 6.34375ZM16.3125 9.0625V14.5H18.125V16.3125H14.5V10.875H12.6875V9.0625H16.3125Z" fill="black" fill-opacity="0.5"/>
<path d="M25.1122 25.6414C25.0003 25.5041 24.9042 25.3545 24.8258 25.1956C24.5812 24.6865 24.4589 24.1272 24.4688 23.5625C24.4688 22.8121 24.6554 22.2702 24.8258 21.9294C24.9042 21.7705 25.0003 21.6209 25.1122 21.4836L25.1176 21.4745C25.2822 21.3057 25.3745 21.0795 25.375 20.8438V0.90625C25.375 0.665898 25.2795 0.435389 25.1096 0.265435C24.9396 0.0954797 24.7091 0 24.4688 0L6.27306 0L6.12262 0.0090625C5.4284 0.0596011 4.75033 0.242962 4.12525 0.549187C3.48189 0.862896 2.93196 1.33971 2.53025 1.93212C2.08075 2.61 1.8125 3.46731 1.8125 4.53125V23.5625C1.8125 24.4017 2.02456 25.0904 2.38887 25.6378C2.75137 26.1779 3.22625 26.5278 3.67213 26.7525C4.20265 27.017 4.78349 27.1653 5.37588 27.1875H5.4375V25.375L5.38494 25.3714C5.07099 25.3521 4.76408 25.2701 4.48231 25.1303C4.24587 25.0199 4.04361 24.8477 3.89688 24.6319C3.75188 24.4144 3.625 24.0827 3.625 23.5625C3.625 23.0423 3.75188 22.7106 3.89688 22.4931C4.04411 22.2771 4.24702 22.1049 4.48412 21.9947C4.78115 21.8469 5.10603 21.7635 5.4375 21.75H22.9426C22.7777 22.2394 22.6562 22.8466 22.6562 23.5625C22.6562 24.2784 22.7777 24.8856 22.9426 25.375H14.5V27.1875H24.4688C24.6468 27.1875 24.8209 27.135 24.9693 27.0367C25.1177 26.9384 25.2339 26.7985 25.3033 26.6346C25.3727 26.4706 25.3922 26.2898 25.3596 26.1148C25.3269 25.9398 25.2433 25.7783 25.1194 25.6505L25.1122 25.6414ZM4.93725 2.16956C5.10642 2.0874 5.27317 2.02094 5.4375 1.97019C5.4375 5.28888 5.43931 19.9375 5.43569 19.9375H5.37588C5.20382 19.9434 5.03241 19.9616 4.86294 19.9919C4.44912 20.0582 4.04767 20.1865 3.67213 20.3725L3.625 20.3979V4.53125C3.625 3.78269 3.80988 3.28244 4.04006 2.93806C4.27206 2.58825 4.59106 2.34356 4.93725 2.16956ZM7.25 19.9375V1.8125H23.5625V19.9375H7.25Z" fill="black" fill-opacity="0.5"/>
<path d="M12.6875 23.5625H7.25V28.0938C7.24968 28.2732 7.30266 28.4488 7.40221 28.5981C7.50177 28.7474 7.64343 28.8638 7.80922 28.9325C7.97502 29.0013 8.15749 29.0192 8.3335 28.9841C8.50951 28.949 8.67113 28.8624 8.79788 28.7354L9.96875 27.5627L11.1396 28.7354C11.2664 28.8624 11.428 28.949 11.604 28.9841C11.78 29.0192 11.9625 29.0013 12.1283 28.9325C12.2941 28.8638 12.4357 28.7474 12.5353 28.5981C12.6348 28.4488 12.6878 28.2732 12.6875 28.0938V23.5625Z" fill="black" fill-opacity="0.5"/>
</g>
<defs>
<clipPath id="clip0_9_626">
<rect width="29" height="29" fill="white"/>
</clipPath>
</defs>
</svg>
