<svg width="27" height="29" viewBox="0 0 27 29" fill="none" xmlns="http://www.w3.org/2000/svg">
<path d="M4.09225 13.8002C3.99188 15.7197 4.10738 17.763 2.39275 19.0486C1.99855 19.3436 1.67866 19.7265 1.45857 20.167C1.23847 20.6074 1.12425 21.0931 1.125 21.5855C1.125 22.9563 2.20025 24.1251 3.6 24.1251H23.4C24.7998 24.1251 25.875 22.9563 25.875 21.5855C25.875 20.5872 25.4048 19.6467 24.6073 19.0486C22.8926 17.763 23.0081 15.7197 22.9078 13.8002C22.784 11.3886 21.7389 9.11656 19.9881 7.45336C18.2374 5.79015 15.9148 4.86279 13.5 4.86279C11.0852 4.86279 8.7626 5.79015 7.01187 7.45336C5.26114 9.11656 4.21599 11.3886 4.09225 13.8002Z" stroke="#306BFF" stroke-width="1.5" stroke-linecap="round" stroke-linejoin="round"/>
<path d="M17.625 24.125C17.625 25.219 17.1904 26.2682 16.4168 27.0418C15.6432 27.8154 14.594 28.25 13.5 28.25C12.406 28.25 11.3568 27.8154 10.5832 27.0418C9.8096 26.2682 9.375 25.219 9.375 24.125M11.4375 2.29688C11.4375 3.43538 12.3615 4.875 13.5 4.875C14.6385 4.875 15.5625 3.43538 15.5625 2.29688C15.5625 1.15838 14.6385 0.75 13.5 0.75C12.3615 0.75 11.4375 1.15838 11.4375 2.29688Z" stroke="#306BFF" stroke-opacity="0.48" stroke-width="1.5" stroke-linecap="round" stroke-linejoin="round"/>
</svg>
