<svg width="14" height="16" viewBox="0 0 14 16" fill="none" xmlns="http://www.w3.org/2000/svg">
<path d="M2.43867 7.32744C2.39 8.25811 2.446 9.24877 1.61467 9.87211C1.42354 10.0151 1.26844 10.2008 1.16173 10.4143C1.05502 10.6279 0.999639 10.8634 1 11.1021C1 11.7668 1.52134 12.3334 2.2 12.3334H11.8C12.4787 12.3334 13 11.7668 13 11.1021C13 10.6181 12.772 10.1621 12.3853 9.87211C11.554 9.24877 11.61 8.25811 11.5613 7.32744C11.5013 6.15816 10.9946 5.05657 10.1458 4.25017C9.29692 3.44377 8.17082 2.99414 7 2.99414C5.82919 2.99414 4.70308 3.44377 3.85424 4.25017C3.0054 5.05657 2.49866 6.15816 2.43867 7.32744Z" stroke="#FF0576" stroke-width="1.5" stroke-linecap="round" stroke-linejoin="round"/>
<path d="M9 12.3333C9 12.8638 8.78929 13.3725 8.41421 13.7475C8.03914 14.1226 7.53043 14.3333 7 14.3333C6.46957 14.3333 5.96086 14.1226 5.58579 13.7475C5.21071 13.3725 5 12.8638 5 12.3333M6 1.75C6 2.302 6.448 3 7 3C7.552 3 8 2.302 8 1.75C8 1.198 7.552 1 7 1C6.448 1 6 1.198 6 1.75Z" stroke="#FF0576" stroke-width="1.5" stroke-linecap="round" stroke-linejoin="round"/>
</svg>
