<svg width="29" height="29" viewBox="0 0 29 29" fill="none" xmlns="http://www.w3.org/2000/svg">
<path d="M4.50712 27.1331L4.8862 26.3892L4.50712 27.1331ZM1.86682 24.4928L2.61081 24.1138L1.86682 24.4928ZM22.2998 24.4928L21.5558 24.1138L22.2998 24.4928ZM19.6595 27.1331L19.2804 26.3892L19.6595 27.1331ZM19.6595 6.70015L19.2804 7.44414L19.6595 6.70015ZM22.2998 9.34045L21.5558 9.71954L22.2998 9.34045ZM4.50712 6.70015L4.8862 7.44414L4.50712 6.70015ZM1.86682 9.34045L2.61081 9.71954L1.86682 9.34045ZM22.9583 22.1233C22.4972 22.1233 22.1233 22.4972 22.1233 22.9583C22.1233 23.4195 22.4972 23.7933 22.9583 23.7933V22.1233ZM5.20665 6.04165C5.20665 6.5028 5.58049 6.87665 6.04165 6.87665C6.5028 6.87665 6.87665 6.5028 6.87665 6.04165H5.20665ZM6.67258 19.9385C6.33945 20.2574 6.32791 20.7859 6.6468 21.1191C6.96569 21.4522 7.49425 21.4637 7.82738 21.1448L6.67258 19.9385ZM16.3392 21.1448C16.6724 21.4637 17.2009 21.4522 17.5198 21.1191C17.8387 20.7859 17.8272 20.2574 17.4941 19.9385L16.3392 21.1448ZM10.875 6.87665H13.2916V5.20665H10.875V6.87665ZM22.1233 15.7083V18.125H23.7933V15.7083H22.1233ZM13.2916 26.9566H10.875V28.6266H13.2916V26.9566ZM2.04331 18.125V15.7083H0.373313V18.125H2.04331ZM10.875 26.9566C9.16938 26.9566 7.94039 26.956 6.97482 26.8771C6.019 26.799 5.39506 26.6484 4.8862 26.3892L4.12804 27.8771C4.91156 28.2764 5.77973 28.455 6.83883 28.5416C7.88818 28.6273 9.19693 28.6266 10.875 28.6266V26.9566ZM0.373313 18.125C0.373313 19.803 0.372664 21.1118 0.458399 22.1611C0.544931 23.2202 0.7236 24.0884 1.12282 24.8719L2.61081 24.1138C2.35153 23.6049 2.20095 22.981 2.12285 22.0251C2.04396 21.0596 2.04331 19.8306 2.04331 18.125H0.373313ZM4.8862 26.3892C3.90651 25.89 3.10999 25.0935 2.61081 24.1138L1.12282 24.8719C1.78211 26.1659 2.83411 27.2178 4.12804 27.8771L4.8862 26.3892ZM22.1233 18.125C22.1233 19.8306 22.1227 21.0596 22.0438 22.0251C21.9657 22.981 21.8151 23.6049 21.5558 24.1138L23.0438 24.8719C23.443 24.0884 23.6217 23.2202 23.7082 22.1611C23.794 21.1118 23.7933 19.803 23.7933 18.125H22.1233ZM13.2916 28.6266C14.9697 28.6266 16.2784 28.6273 17.3278 28.5416C18.3869 28.455 19.2551 28.2764 20.0386 27.8771L19.2804 26.3892C18.7716 26.6484 18.1476 26.799 17.1918 26.8771C16.2262 26.956 14.9973 26.9566 13.2916 26.9566V28.6266ZM21.5558 24.1138C21.0566 25.0935 20.2601 25.89 19.2804 26.3892L20.0386 27.8771C21.3325 27.2178 22.3845 26.1659 23.0438 24.8719L21.5558 24.1138ZM13.2916 6.87665C14.9973 6.87665 16.2262 6.8773 17.1918 6.95619C18.1476 7.03428 18.7716 7.18486 19.2804 7.44414L20.0386 5.95616C19.2551 5.55693 18.3869 5.37826 17.3278 5.29173C16.2784 5.206 14.9697 5.20665 13.2916 5.20665V6.87665ZM23.7933 15.7083C23.7933 14.0303 23.794 12.7215 23.7082 11.6722C23.6217 10.6131 23.443 9.74489 23.0438 8.96137L21.5558 9.71954C21.8151 10.2284 21.9657 10.8523 22.0438 11.8082C22.1227 12.7737 22.1233 14.0027 22.1233 15.7083H23.7933ZM19.2804 7.44414C20.2601 7.94332 21.0566 8.73984 21.5558 9.71954L23.0438 8.96137C22.3845 7.66744 21.3325 6.61545 20.0386 5.95616L19.2804 7.44414ZM10.875 5.20665C9.19693 5.20665 7.88818 5.206 6.83883 5.29173C5.77973 5.37826 4.91156 5.55693 4.12804 5.95616L4.8862 7.44414C5.39506 7.18486 6.019 7.03428 6.97482 6.95619C7.94039 6.8773 9.16938 6.87665 10.875 6.87665V5.20665ZM2.04331 15.7083C2.04331 14.0027 2.04396 12.7737 2.12285 11.8082C2.20095 10.8523 2.35153 10.2284 2.61081 9.71954L1.12282 8.96137C0.7236 9.74489 0.544931 10.6131 0.458399 11.6722C0.372664 12.7215 0.373313 14.0303 0.373313 15.7083H2.04331ZM4.12804 5.95616C2.83411 6.61545 1.78211 7.66744 1.12282 8.96137L2.61081 9.71954C3.10999 8.73984 3.90651 7.94332 4.8862 7.44414L4.12804 5.95616ZM10.875 2.04331H21.75V0.373313H10.875V2.04331ZM26.9566 7.24998V18.125H28.6266V7.24998H26.9566ZM26.9566 18.125C26.9566 20.3332 25.1665 22.1233 22.9583 22.1233V23.7933C26.0889 23.7933 28.6266 21.2555 28.6266 18.125H26.9566ZM21.75 2.04331C24.6255 2.04331 26.9566 4.37442 26.9566 7.24998H28.6266C28.6266 3.4521 25.5479 0.373313 21.75 0.373313V2.04331ZM10.875 0.373313C7.74445 0.373313 5.20665 2.91111 5.20665 6.04165H6.87665C6.87665 3.83343 8.66676 2.04331 10.875 2.04331V0.373313ZM7.82738 21.1448C10.1739 18.8986 13.9928 18.8986 16.3392 21.1448L17.4941 19.9385C14.5018 17.0741 9.66484 17.0741 6.67258 19.9385L7.82738 21.1448ZM14.4903 15.1487C14.4903 16.3465 13.4651 17.3791 12.123 17.3791V19.0491C14.318 19.0491 16.1603 17.3369 16.1603 15.1487H14.4903ZM12.123 17.3791C10.7808 17.3791 9.75567 16.3465 9.75567 15.1487H8.08567C8.08567 17.3369 9.92798 19.0491 12.123 19.0491V17.3791ZM9.75567 15.1487C9.75567 13.9509 10.7808 12.9183 12.123 12.9183V11.2483C9.92798 11.2483 8.08567 12.9606 8.08567 15.1487H9.75567ZM12.123 12.9183C13.4651 12.9183 14.4903 13.9509 14.4903 15.1487H16.1603C16.1603 12.9606 14.3179 11.2483 12.123 11.2483V12.9183Z" fill="#08A0F7"/>
</svg>
