<svg width="29" height="29" viewBox="0 0 29 29" fill="none" xmlns="http://www.w3.org/2000/svg">
<path d="M4.50706 27.1332L4.88614 26.3892L4.50706 27.1332ZM1.86675 24.4929L2.61074 24.1138L1.86675 24.4929ZM22.2998 24.4929L21.5558 24.1138L22.2998 24.4929ZM19.6594 27.1332L19.2804 26.3892L19.6594 27.1332ZM19.6594 6.70016L19.2804 7.44416L19.6594 6.70016ZM22.2998 9.34047L21.5558 9.71955L22.2998 9.34047ZM4.50706 6.70016L4.88614 7.44416L4.50706 6.70016ZM1.86675 9.34047L2.61074 9.71955L1.86675 9.34047ZM22.9583 22.1233C22.4971 22.1233 22.1233 22.4972 22.1233 22.9583C22.1233 23.4195 22.4971 23.7933 22.9583 23.7933V22.1233ZM5.20659 6.04166C5.20659 6.50282 5.58043 6.87666 6.04159 6.87666C6.50274 6.87666 6.87659 6.50282 6.87659 6.04166H5.20659ZM6.67252 19.9385C6.33939 20.2574 6.32784 20.7859 6.64673 21.1191C6.96562 21.4522 7.49419 21.4637 7.82732 21.1448L6.67252 19.9385ZM16.3392 21.1448C16.6723 21.4637 17.2009 21.4522 17.5198 21.1191C17.8387 20.7859 17.8271 20.2574 17.494 19.9385L16.3392 21.1448ZM10.8749 6.87666H13.2916V5.20666H10.8749V6.87666ZM22.1233 15.7083V18.125H23.7933V15.7083H22.1233ZM13.2916 26.9567H10.8749V28.6267H13.2916V26.9567ZM2.04325 18.125V15.7083H0.373252V18.125H2.04325ZM10.8749 26.9567C9.16932 26.9567 7.94033 26.956 6.97476 26.8771C6.01894 26.799 5.395 26.6484 4.88614 26.3892L4.12798 27.8772C4.9115 28.2764 5.77967 28.455 6.83877 28.5416C7.88812 28.6273 9.19687 28.6267 10.8749 28.6267V26.9567ZM0.373252 18.125C0.373252 19.803 0.372603 21.1118 0.458338 22.1611C0.54487 23.2202 0.723539 24.0884 1.12276 24.8719L2.61074 24.1138C2.35147 23.6049 2.20089 22.981 2.12279 22.0252C2.0439 21.0596 2.04325 19.8306 2.04325 18.125H0.373252ZM4.88614 26.3892C3.90644 25.89 3.10993 25.0935 2.61074 24.1138L1.12276 24.8719C1.78205 26.1659 2.83405 27.2179 4.12798 27.8772L4.88614 26.3892ZM22.1233 18.125C22.1233 19.8306 22.1226 21.0596 22.0437 22.0252C21.9656 22.981 21.815 23.6049 21.5558 24.1138L23.0437 24.8719C23.443 24.0884 23.6216 23.2202 23.7082 22.1611C23.7939 21.1118 23.7933 19.803 23.7933 18.125H22.1233ZM13.2916 28.6267C14.9696 28.6267 16.2784 28.6273 17.3277 28.5416C18.3868 28.455 19.255 28.2764 20.0385 27.8772L19.2804 26.3892C18.7715 26.6484 18.1476 26.799 17.1917 26.8771C16.2262 26.956 14.9972 26.9567 13.2916 26.9567V28.6267ZM21.5558 24.1138C21.0566 25.0935 20.2601 25.89 19.2804 26.3892L20.0385 27.8772C21.3325 27.2179 22.3845 26.1659 23.0437 24.8719L21.5558 24.1138ZM13.2916 6.87666C14.9972 6.87666 16.2262 6.87731 17.1917 6.9562C18.1476 7.0343 18.7715 7.18488 19.2804 7.44416L20.0385 5.95617C19.255 5.55695 18.3868 5.37828 17.3277 5.29175C16.2784 5.20601 14.9696 5.20666 13.2916 5.20666V6.87666ZM23.7933 15.7083C23.7933 14.0303 23.7939 12.7215 23.7082 11.6722C23.6216 10.6131 23.443 9.74491 23.0437 8.96139L21.5558 9.71955C21.815 10.2284 21.9656 10.8523 22.0437 11.8082C22.1226 12.7737 22.1233 14.0027 22.1233 15.7083H23.7933ZM19.2804 7.44416C20.2601 7.94334 21.0566 8.73985 21.5558 9.71955L23.0437 8.96139C22.3845 7.66746 21.3325 6.61546 20.0385 5.95617L19.2804 7.44416ZM10.8749 5.20666C9.19687 5.20666 7.88812 5.20601 6.83877 5.29175C5.77967 5.37828 4.9115 5.55695 4.12798 5.95617L4.88614 7.44416C5.395 7.18488 6.01894 7.0343 6.97476 6.9562C7.94033 6.87731 9.16932 6.87666 10.8749 6.87666V5.20666ZM2.04325 15.7083C2.04325 14.0027 2.0439 12.7737 2.12279 11.8082C2.20089 10.8523 2.35147 10.2284 2.61074 9.71955L1.12276 8.96139C0.723539 9.74491 0.54487 10.6131 0.458338 11.6722C0.372603 12.7215 0.373252 14.0303 0.373252 15.7083H2.04325ZM4.12798 5.95617C2.83405 6.61546 1.78205 7.66746 1.12276 8.96139L2.61074 9.71955C3.10993 8.73985 3.90644 7.94334 4.88614 7.44416L4.12798 5.95617ZM10.8749 2.04333H21.7499V0.373328H10.8749V2.04333ZM26.9566 7.25V18.125H28.6266V7.25H26.9566ZM26.9566 18.125C26.9566 20.3332 25.1665 22.1233 22.9583 22.1233V23.7933C26.0888 23.7933 28.6266 21.2555 28.6266 18.125H26.9566ZM21.7499 2.04333C24.6255 2.04333 26.9566 4.37443 26.9566 7.25H28.6266C28.6266 3.45212 25.5478 0.373328 21.7499 0.373328V2.04333ZM10.8749 0.373328C7.74439 0.373328 5.20659 2.91113 5.20659 6.04166H6.87659C6.87659 3.83344 8.6667 2.04333 10.8749 2.04333V0.373328ZM7.82732 21.1448C10.1738 18.8987 13.9927 18.8987 16.3392 21.1448L17.494 19.9385C14.5017 17.0741 9.66478 17.0741 6.67252 19.9385L7.82732 21.1448ZM14.4902 15.1487C14.4902 16.3466 13.4651 17.3792 12.1229 17.3792V19.0492C14.3179 19.0492 16.1602 17.3369 16.1602 15.1487H14.4902ZM12.1229 17.3792C10.7807 17.3792 9.75561 16.3466 9.75561 15.1487H8.08561C8.08561 17.3369 9.92792 19.0492 12.1229 19.0492V17.3792ZM9.75561 15.1487C9.75561 13.9509 10.7807 12.9183 12.1229 12.9183V11.2483C9.92792 11.2483 8.08561 12.9606 8.08561 15.1487H9.75561ZM12.1229 12.9183C13.4651 12.9183 14.4902 13.9509 14.4902 15.1487H16.1602C16.1602 12.9606 14.3179 11.2483 12.1229 11.2483V12.9183Z" fill="#5F6D7E"/>
</svg>
