<svg width="547" height="362" viewBox="0 0 547 362" fill="none" xmlns="http://www.w3.org/2000/svg">
<path d="M153.494 235.49L119.593 233.381L120.484 210.294L144.4 212.283C143.022 217.819 143.525 228.096 153.494 235.49Z" fill="#FFB8B8"/>
<path d="M270.654 61.8712C279.798 61.8712 287.211 54.37 287.211 45.1168C287.211 35.8635 279.798 28.3623 270.654 28.3623C261.51 28.3623 254.097 35.8635 254.097 45.1168C254.097 54.37 261.51 61.8712 270.654 61.8712Z" fill="#FD6584"/>
<path d="M307.71 37.1835C307.243 35.6342 306.338 34.2568 305.107 33.2211C303.877 32.1854 302.374 31.5364 300.783 31.3541C300.746 31.351 300.709 31.351 300.672 31.3541C300.627 31.34 300.581 31.3295 300.535 31.3228C294.991 30.5949 288.828 32.3644 284.679 36.2171C283.139 37.6248 281.908 39.3434 281.064 41.2621C280.295 40.1992 279.282 39.342 278.112 38.7647C276.941 38.1874 275.65 37.9074 274.349 37.949C272.671 38.0613 271.068 38.6946 269.758 39.7625C268.449 40.8304 267.497 42.2809 267.032 43.9164C266.98 44.1162 266.994 44.3274 267.072 44.5185C267.149 44.7096 267.285 44.8703 267.459 44.9768C267.958 45.4084 268.551 45.7138 269.189 45.8678C270.56 46.1628 271.943 46.4326 273.326 46.6773C276.029 47.1542 278.747 47.5411 281.48 47.8382C283.284 48.0327 285.093 48.1875 286.905 48.3025C290.651 48.5409 294.415 48.5974 298.166 48.4782C300.027 48.4154 301.812 48.3527 303.512 47.5244C304.75 46.9082 305.808 45.9761 306.581 44.82C307.309 43.7078 307.787 42.4478 307.982 41.1284C308.177 39.809 308.084 38.4625 307.71 37.1835Z" fill="#F2F2F2"/>
<path d="M273.646 61.5925C273.615 60.8905 273.498 60.195 273.299 59.5218C272.83 57.9726 271.924 56.5958 270.692 55.5602C269.461 54.5247 267.957 53.8756 266.366 53.6925C266.331 53.6894 266.296 53.6894 266.261 53.6925C266.214 53.6791 266.166 53.6686 266.118 53.6611C263.05 53.2808 259.936 53.6047 257.009 54.6086C252.507 56.1334 248.557 59.2081 246.653 63.6005C245.884 62.5369 244.869 61.6793 243.698 61.1019C242.527 60.5246 241.234 60.245 239.932 60.2874C238.254 60.3997 236.651 61.0329 235.341 62.1008C234.032 63.1687 233.08 64.6193 232.615 66.2547C232.566 66.4546 232.582 66.6647 232.659 66.8552C232.735 67.0456 232.87 67.2066 233.042 67.3152C233.542 67.7456 234.135 68.0509 234.773 68.2062C236.149 68.5011 237.526 68.771 238.915 69.0157C241.618 69.4926 244.334 69.8795 247.063 70.1765C252.606 70.7787 258.183 70.9925 263.756 70.8166C265.61 70.7538 267.402 70.691 269.101 69.8628C270.337 69.2464 271.393 68.3142 272.164 67.1583C273.251 65.5192 273.772 63.5624 273.646 61.5925Z" fill="#F2F2F2"/>
<path d="M456.678 299.823H392.575C392.225 294.628 392.256 289.415 392.668 284.225C395.229 252.164 412.467 221.622 438.473 203.128C435.149 215.107 436.86 227.016 440.319 238.971C439.834 239.134 439.349 239.275 438.911 239.461C435.4 240.778 432.179 242.777 429.427 245.346C428.666 246.07 427.858 247.12 428.249 248.124C428.595 248.965 429.634 249.245 430.534 249.432C432.704 249.853 434.874 250.273 437.018 250.67C438.748 251.02 440.479 251.347 442.21 251.697C443.016 251.837 443.822 252 444.633 252.164C444.748 252.444 444.819 252.701 444.933 252.957C448.994 264.282 453.424 275.701 455.501 287.306C456.016 290.218 456.37 293.157 456.563 296.109C456.635 297.347 456.678 298.585 456.678 299.823Z" fill="#F2F2F2"/>
<path d="M164.374 257.325C153.482 264.026 146.559 274.392 140.906 286.001C135.986 287.135 131.444 289.55 127.73 293.006C126.945 293.73 126.137 294.781 126.551 295.784C126.897 296.625 127.936 296.905 128.836 297.092C130.982 297.513 133.177 297.933 135.32 298.33C135.112 298.82 134.905 299.334 134.7 299.824H62.7038C65.972 295.364 69.5913 291.178 73.5262 287.307C74.3801 286.443 75.2569 285.626 76.1567 284.785C85.3343 276.392 95.8725 269.662 107.309 264.89C125.325 257.269 145.026 254.657 164.375 257.325H164.374Z" fill="#F2F2F2"/>
<path d="M313.351 272.588L370.628 277.734L371.242 277.79V30.4736L370.628 30.0407C358.691 21.5914 345.778 14.6502 332.177 9.37134L329.25 50.2206L328.983 53.9604L326.087 94.4707L325.194 106.933L313.456 271.145L313.351 272.588Z" fill="#F2F2F2"/>
<path d="M171.703 25.8678C171.294 26.1313 170.885 26.3948 170.475 26.6709V277.79L171.703 277.677L228.361 272.588L228.255 271.145L216.517 106.932L215.624 94.4706L212.728 53.9602L212.462 50.2204L209.392 7.38208C196.155 12.0251 183.505 18.2297 171.703 25.8678Z" fill="#F2F2F2"/>
<path d="M170.475 26.6711C169.651 27.2107 168.826 27.7629 168.014 28.3214V281.216C168.014 287.535 171.716 292.831 176.664 294.18C177.473 294.402 178.307 294.513 179.144 294.513H363.187C364.023 294.514 364.855 294.402 365.661 294.18C367.501 293.664 369.168 292.653 370.486 291.256C372.999 288.537 374.373 284.939 374.318 281.216V32.72C373.301 31.9608 372.278 31.2078 371.242 30.4737L370.628 30.0407V281.216C370.63 282.03 370.534 282.841 370.343 283.632C369.469 287.366 366.585 290.101 363.187 290.101H179.144C175.039 290.101 171.703 286.117 171.703 281.216V25.8679C171.294 26.1315 170.885 26.395 170.475 26.6711Z" fill="#F2F2F2"/>
<path d="M372.472 50.2234H169.856V53.9626H372.472V50.2234Z" fill="#F2F2F2"/>
<path d="M310.418 2.5256C309.19 2.21813 307.962 1.92949 306.722 1.65967V103.193H310.418V2.5256Z" fill="#F2F2F2"/>
<path d="M235.61 0.398438C234.376 0.630607 233.142 0.869053 231.914 1.12632V103.193H235.61V0.398438Z" fill="#F2F2F2"/>
<path d="M130.132 287.968C130.131 290.114 130.538 292.24 131.329 294.231C131.633 295.003 131.996 295.749 132.414 296.464C132.954 297.397 133.582 298.275 134.287 299.087C135.844 300.884 137.763 302.323 139.915 303.309C142.066 304.295 144.401 304.804 146.763 304.804H389.411C393.821 304.804 398.052 303.031 401.17 299.875C404.289 296.719 406.041 292.438 406.041 287.975C406.041 283.511 404.289 279.231 401.17 276.075C398.052 272.919 393.821 271.146 389.411 271.146H146.763C142.355 271.15 138.128 272.923 135.01 276.077C131.892 279.231 130.138 283.507 130.132 287.968Z" fill="#F2F2F2"/>
<path d="M169.856 106.934L371.241 106.934V94.4701L169.856 94.4701V106.934Z" fill="#F2F2F2"/>
<path d="M279.171 97.5854H261.927C261.927 95.7673 262.64 94.0237 263.911 92.7381C265.181 91.4524 266.904 90.7302 268.701 90.7302H272.396C273.286 90.7301 274.167 90.9074 274.989 91.2518C275.811 91.5963 276.558 92.1012 277.187 92.7378C277.816 93.3744 278.315 94.1302 278.656 94.9619C278.996 95.7937 279.171 96.6852 279.171 97.5854Z" fill="#F2F2F2"/>
<path d="M0 297.581C5.51656 304.05 11.4734 310.12 17.827 315.747H529.173C535.527 310.12 541.483 304.05 547 297.581H0Z" fill="#F2F2F2"/>
<path d="M246.554 236.834V301.189H291.108V236.834C291.109 236.371 290.963 235.921 290.691 235.548C290.42 235.175 290.038 234.9 289.601 234.764C289.395 234.695 289.179 234.661 288.962 234.663H248.706C248.424 234.663 248.144 234.718 247.883 234.827C247.622 234.936 247.385 235.096 247.185 235.297C246.986 235.499 246.827 235.739 246.719 236.002C246.61 236.266 246.555 236.549 246.554 236.834ZM263.942 258.947C263.942 257.67 264.443 256.446 265.335 255.544C266.227 254.641 267.436 254.134 268.698 254.134C269.959 254.134 271.169 254.641 272.061 255.544C272.953 256.446 273.454 257.67 273.454 258.947V266.414C273.454 267.69 272.953 268.915 272.061 269.817C271.169 270.72 269.959 271.227 268.698 271.227C267.436 271.227 266.227 270.72 265.335 269.817C264.443 268.915 263.942 267.69 263.942 266.414V258.947Z" fill="#E6E6E6"/>
<path d="M246.418 299.132V305.337C246.419 305.659 246.545 305.967 246.769 306.195C246.993 306.423 247.297 306.552 247.615 306.555H290.048C290.366 306.553 290.67 306.424 290.894 306.196C291.118 305.968 291.244 305.659 291.244 305.337V299.132H246.418Z" fill="#3F3D56"/>
<path d="M176.465 139.875V257.376C176.467 258.873 177.055 260.309 178.101 261.368C179.148 262.426 180.566 263.022 182.046 263.023H354.121C355.601 263.022 357.02 262.426 358.066 261.368C359.113 260.309 359.701 258.873 359.702 257.376V139.875C359.699 138.379 359.109 136.946 358.063 135.888C357.017 134.831 355.6 134.236 354.121 134.234H182.046C180.568 134.236 179.15 134.831 178.104 135.888C177.058 136.946 176.469 138.379 176.465 139.875Z" fill="#3F3D56"/>
<path d="M180.502 141.337V255.929C180.504 256.729 180.818 257.496 181.377 258.061C181.936 258.627 182.694 258.945 183.485 258.947H352.689C353.48 258.945 354.238 258.627 354.797 258.061C355.356 257.496 355.67 256.729 355.672 255.929V141.337C355.672 140.536 355.358 139.768 354.798 139.201C354.239 138.634 353.481 138.315 352.689 138.313H183.485C182.693 138.315 181.935 138.634 181.376 139.201C180.817 139.768 180.502 140.536 180.502 141.337Z" fill="#F2F2F2"/>
<path d="M215.004 308.014C215.176 308.232 215.395 308.408 215.644 308.529C215.894 308.65 216.167 308.712 216.443 308.71H317.108C317.384 308.71 317.655 308.647 317.904 308.527C318.152 308.407 318.371 308.233 318.545 308.017C318.718 307.8 318.842 307.547 318.906 307.277C318.971 307.006 318.975 306.724 318.919 306.451L317.356 298.94C317.292 298.634 317.152 298.349 316.951 298.111C316.749 297.873 316.492 297.69 316.203 297.579C315.994 297.496 315.771 297.453 315.546 297.453H217.999C217.774 297.453 217.551 297.495 217.342 297.579C217.053 297.69 216.796 297.873 216.594 298.111C216.393 298.349 216.253 298.634 216.189 298.94L214.626 306.451C214.57 306.724 214.575 307.005 214.641 307.276C214.706 307.546 214.83 307.798 215.004 308.014Z" fill="#2F2E41"/>
<path d="M312.033 300.691H314.528C314.695 300.691 314.831 300.554 314.831 300.385V299.115C314.831 298.946 314.695 298.808 314.528 298.808H312.033C311.866 298.808 311.73 298.946 311.73 299.115V300.385C311.73 300.554 311.866 300.691 312.033 300.691Z" fill="#3F3D56"/>
<path d="M305.832 300.691H308.327C308.494 300.691 308.63 300.554 308.63 300.385V299.115C308.63 298.946 308.494 298.808 308.327 298.808H305.832C305.665 298.808 305.529 298.946 305.529 299.115V300.385C305.529 300.554 305.665 300.691 305.832 300.691Z" fill="#3F3D56"/>
<path d="M299.631 300.691H302.126C302.293 300.691 302.429 300.554 302.429 300.385V299.115C302.429 298.946 302.293 298.808 302.126 298.808H299.631C299.464 298.808 299.328 298.946 299.328 299.115V300.385C299.328 300.554 299.464 300.691 299.631 300.691Z" fill="#3F3D56"/>
<path d="M293.43 300.691H295.925C296.092 300.691 296.228 300.554 296.228 300.385V299.115C296.228 298.946 296.092 298.808 295.925 298.808H293.43C293.263 298.808 293.127 298.946 293.127 299.115V300.385C293.127 300.554 293.263 300.691 293.43 300.691Z" fill="#3F3D56"/>
<path d="M287.229 300.691H289.724C289.891 300.691 290.027 300.554 290.027 300.385V299.115C290.027 298.946 289.891 298.808 289.724 298.808H287.229C287.062 298.808 286.926 298.946 286.926 299.115V300.385C286.926 300.554 287.062 300.691 287.229 300.691Z" fill="#3F3D56"/>
<path d="M281.028 300.691H283.523C283.691 300.691 283.826 300.554 283.826 300.385V299.115C283.826 298.946 283.691 298.808 283.523 298.808H281.028C280.861 298.808 280.726 298.946 280.726 299.115V300.385C280.726 300.554 280.861 300.691 281.028 300.691Z" fill="#3F3D56"/>
<path d="M274.827 300.691H277.322C277.489 300.691 277.625 300.554 277.625 300.385V299.115C277.625 298.946 277.489 298.808 277.322 298.808H274.827C274.66 298.808 274.524 298.946 274.524 299.115V300.385C274.524 300.554 274.66 300.691 274.827 300.691Z" fill="#3F3D56"/>
<path d="M268.626 300.691H271.122C271.289 300.691 271.424 300.554 271.424 300.385V299.115C271.424 298.946 271.289 298.808 271.122 298.808H268.626C268.459 298.808 268.324 298.946 268.324 299.115V300.385C268.324 300.554 268.459 300.691 268.626 300.691Z" fill="#3F3D56"/>
<path d="M262.425 300.691H264.921C265.088 300.691 265.223 300.554 265.223 300.385V299.115C265.223 298.946 265.088 298.808 264.921 298.808H262.425C262.258 298.808 262.123 298.946 262.123 299.115V300.385C262.123 300.554 262.258 300.691 262.425 300.691Z" fill="#3F3D56"/>
<path d="M256.225 300.691H258.72C258.887 300.691 259.022 300.554 259.022 300.385V299.115C259.022 298.946 258.887 298.808 258.72 298.808H256.225C256.057 298.808 255.922 298.946 255.922 299.115V300.385C255.922 300.554 256.057 300.691 256.225 300.691Z" fill="#3F3D56"/>
<path d="M250.024 300.691H252.519C252.686 300.691 252.821 300.554 252.821 300.385V299.115C252.821 298.946 252.686 298.808 252.519 298.808H250.024C249.856 298.808 249.721 298.946 249.721 299.115V300.385C249.721 300.554 249.856 300.691 250.024 300.691Z" fill="#3F3D56"/>
<path d="M243.823 300.691H246.318C246.485 300.691 246.621 300.554 246.621 300.385V299.115C246.621 298.946 246.485 298.808 246.318 298.808H243.823C243.656 298.808 243.52 298.946 243.52 299.115V300.385C243.52 300.554 243.656 300.691 243.823 300.691Z" fill="#3F3D56"/>
<path d="M237.622 300.691H240.117C240.284 300.691 240.42 300.554 240.42 300.385V299.115C240.42 298.946 240.284 298.808 240.117 298.808H237.622C237.455 298.808 237.319 298.946 237.319 299.115V300.385C237.319 300.554 237.455 300.691 237.622 300.691Z" fill="#3F3D56"/>
<path d="M231.421 300.691H233.916C234.083 300.691 234.219 300.554 234.219 300.385V299.115C234.219 298.946 234.083 298.808 233.916 298.808H231.421C231.254 298.808 231.118 298.946 231.118 299.115V300.385C231.118 300.554 231.254 300.691 231.421 300.691Z" fill="#3F3D56"/>
<path d="M225.22 300.691H227.715C227.882 300.691 228.018 300.554 228.018 300.385V299.115C228.018 298.946 227.882 298.808 227.715 298.808H225.22C225.053 298.808 224.917 298.946 224.917 299.115V300.385C224.917 300.554 225.053 300.691 225.22 300.691Z" fill="#3F3D56"/>
<path d="M219.019 300.691H221.514C221.681 300.691 221.817 300.554 221.817 300.385V299.115C221.817 298.946 221.681 298.808 221.514 298.808H219.019C218.852 298.808 218.716 298.946 218.716 299.115V300.385C218.716 300.554 218.852 300.691 219.019 300.691Z" fill="#3F3D56"/>
<path d="M312.106 303.828H314.601C314.768 303.828 314.904 303.691 314.904 303.522V302.252C314.904 302.083 314.768 301.946 314.601 301.946H312.106C311.939 301.946 311.803 302.083 311.803 302.252V303.522C311.803 303.691 311.939 303.828 312.106 303.828Z" fill="#3F3D56"/>
<path d="M305.905 303.828H308.4C308.567 303.828 308.703 303.691 308.703 303.522V302.252C308.703 302.083 308.567 301.946 308.4 301.946H305.905C305.738 301.946 305.602 302.083 305.602 302.252V303.522C305.602 303.691 305.738 303.828 305.905 303.828Z" fill="#3F3D56"/>
<path d="M299.704 303.828H302.199C302.367 303.828 302.502 303.691 302.502 303.522V302.252C302.502 302.083 302.367 301.946 302.199 301.946H299.704C299.537 301.946 299.402 302.083 299.402 302.252V303.522C299.402 303.691 299.537 303.828 299.704 303.828Z" fill="#3F3D56"/>
<path d="M293.503 303.828H295.998C296.166 303.828 296.301 303.691 296.301 303.522V302.252C296.301 302.083 296.166 301.946 295.998 301.946H293.503C293.336 301.946 293.201 302.083 293.201 302.252V303.522C293.201 303.691 293.336 303.828 293.503 303.828Z" fill="#3F3D56"/>
<path d="M287.302 303.828H289.797C289.964 303.828 290.1 303.691 290.1 303.522V302.252C290.1 302.083 289.964 301.946 289.797 301.946H287.302C287.135 301.946 287 302.083 287 302.252V303.522C287 303.691 287.135 303.828 287.302 303.828Z" fill="#3F3D56"/>
<path d="M281.101 303.828H283.597C283.764 303.828 283.899 303.691 283.899 303.522V302.252C283.899 302.083 283.764 301.946 283.597 301.946H281.101C280.934 301.946 280.799 302.083 280.799 302.252V303.522C280.799 303.691 280.934 303.828 281.101 303.828Z" fill="#3F3D56"/>
<path d="M274.9 303.828H277.396C277.563 303.828 277.698 303.691 277.698 303.522V302.252C277.698 302.083 277.563 301.946 277.396 301.946H274.9C274.733 301.946 274.598 302.083 274.598 302.252V303.522C274.598 303.691 274.733 303.828 274.9 303.828Z" fill="#3F3D56"/>
<path d="M268.7 303.828H271.195C271.362 303.828 271.498 303.691 271.498 303.522V302.252C271.498 302.083 271.362 301.946 271.195 301.946H268.7C268.533 301.946 268.397 302.083 268.397 302.252V303.522C268.397 303.691 268.533 303.828 268.7 303.828Z" fill="#3F3D56"/>
<path d="M262.499 303.828H264.994C265.161 303.828 265.296 303.691 265.296 303.522V302.252C265.296 302.083 265.161 301.946 264.994 301.946H262.499C262.331 301.946 262.196 302.083 262.196 302.252V303.522C262.196 303.691 262.331 303.828 262.499 303.828Z" fill="#3F3D56"/>
<path d="M256.298 303.828H258.793C258.96 303.828 259.096 303.691 259.096 303.522V302.252C259.096 302.083 258.96 301.946 258.793 301.946H256.298C256.131 301.946 255.995 302.083 255.995 302.252V303.522C255.995 303.691 256.131 303.828 256.298 303.828Z" fill="#3F3D56"/>
<path d="M250.097 303.828H252.592C252.759 303.828 252.895 303.691 252.895 303.522V302.252C252.895 302.083 252.759 301.946 252.592 301.946H250.097C249.93 301.946 249.794 302.083 249.794 302.252V303.522C249.794 303.691 249.93 303.828 250.097 303.828Z" fill="#3F3D56"/>
<path d="M243.896 303.828H246.391C246.558 303.828 246.694 303.691 246.694 303.522V302.252C246.694 302.083 246.558 301.946 246.391 301.946H243.896C243.729 301.946 243.593 302.083 243.593 302.252V303.522C243.593 303.691 243.729 303.828 243.896 303.828Z" fill="#3F3D56"/>
<path d="M237.695 303.828H240.19C240.357 303.828 240.493 303.691 240.493 303.522V302.252C240.493 302.083 240.357 301.946 240.19 301.946H237.695C237.528 301.946 237.392 302.083 237.392 302.252V303.522C237.392 303.691 237.528 303.828 237.695 303.828Z" fill="#3F3D56"/>
<path d="M231.494 303.828H233.989C234.156 303.828 234.292 303.691 234.292 303.522V302.252C234.292 302.083 234.156 301.946 233.989 301.946H231.494C231.327 301.946 231.191 302.083 231.191 302.252V303.522C231.191 303.691 231.327 303.828 231.494 303.828Z" fill="#3F3D56"/>
<path d="M225.293 303.828H227.788C227.956 303.828 228.091 303.691 228.091 303.522V302.252C228.091 302.083 227.956 301.946 227.788 301.946H225.293C225.126 301.946 224.991 302.083 224.991 302.252V303.522C224.991 303.691 225.126 303.828 225.293 303.828Z" fill="#3F3D56"/>
<path d="M219.092 303.828H221.588C221.755 303.828 221.89 303.691 221.89 303.522V302.252C221.89 302.083 221.755 301.946 221.588 301.946H219.092C218.925 301.946 218.79 302.083 218.79 302.252V303.522C218.79 303.691 218.925 303.828 219.092 303.828Z" fill="#3F3D56"/>
<path d="M260.638 307.593H284.837C285.004 307.593 285.139 307.456 285.139 307.287V306.017C285.139 305.848 285.004 305.711 284.837 305.711H260.638C260.471 305.711 260.336 305.848 260.336 306.017V307.287C260.336 307.456 260.471 307.593 260.638 307.593Z" fill="#3F3D56"/>
<path d="M191.988 154.099H350.311C350.478 154.099 350.638 154.032 350.756 153.912C350.874 153.793 350.941 153.63 350.941 153.461C350.941 153.292 350.874 153.13 350.756 153.011C350.638 152.891 350.478 152.824 350.311 152.824H191.988C191.821 152.824 191.66 152.891 191.542 153.011C191.424 153.13 191.358 153.292 191.358 153.461C191.358 153.63 191.424 153.793 191.542 153.912C191.66 154.032 191.821 154.099 191.988 154.099Z" fill="#3F3D56"/>
<path d="M339.533 149.571C341.571 149.571 343.223 147.862 343.223 145.754C343.223 143.646 341.571 141.937 339.533 141.937C337.495 141.937 335.844 143.646 335.844 145.754C335.844 147.862 337.495 149.571 339.533 149.571Z" fill="#3F3D56"/>
<path d="M326.787 149.571C328.825 149.571 330.477 147.862 330.477 145.754C330.477 143.646 328.825 141.937 326.787 141.937C324.75 141.937 323.098 143.646 323.098 145.754C323.098 147.862 324.75 149.571 326.787 149.571Z" fill="#3F3D56"/>
<path d="M314.041 149.571C316.078 149.571 317.73 147.862 317.73 145.754C317.73 143.646 316.078 141.937 314.041 141.937C312.003 141.937 310.351 143.646 310.351 145.754C310.351 147.862 312.003 149.571 314.041 149.571Z" fill="#3F3D56"/>
<path d="M198.987 143.578C198.987 143.76 199.058 143.935 199.185 144.064C199.311 144.193 199.483 144.267 199.663 144.268H208.716C208.898 144.268 209.072 144.195 209.201 144.065C209.329 143.935 209.401 143.759 209.401 143.575C209.401 143.391 209.329 143.215 209.201 143.085C209.072 142.955 208.898 142.882 208.716 142.882H199.663C199.573 142.882 199.485 142.901 199.402 142.937C199.32 142.972 199.245 143.024 199.182 143.088C199.12 143.153 199.07 143.229 199.037 143.313C199.003 143.398 198.986 143.487 198.987 143.578Z" fill="#3F3D56"/>
<path d="M198.987 146.182C198.987 146.364 199.058 146.538 199.185 146.668C199.311 146.797 199.483 146.87 199.663 146.872H208.716C208.898 146.872 209.072 146.799 209.201 146.669C209.329 146.539 209.401 146.363 209.401 146.179C209.401 145.995 209.329 145.818 209.201 145.688C209.072 145.558 208.898 145.485 208.716 145.485H199.663C199.573 145.486 199.485 145.505 199.402 145.54C199.32 145.576 199.245 145.627 199.182 145.692C199.12 145.757 199.07 145.833 199.037 145.917C199.003 146.001 198.986 146.091 198.987 146.182Z" fill="#3F3D56"/>
<path d="M198.987 148.78C198.986 148.87 199.003 148.96 199.037 149.044C199.07 149.129 199.12 149.205 199.182 149.27C199.245 149.334 199.32 149.386 199.402 149.421C199.485 149.457 199.573 149.476 199.663 149.476H208.716C208.898 149.476 209.072 149.403 209.201 149.273C209.329 149.143 209.401 148.967 209.401 148.783C209.401 148.599 209.329 148.423 209.201 148.293C209.072 148.163 208.898 148.09 208.716 148.09H199.663C199.483 148.091 199.311 148.165 199.185 148.294C199.058 148.423 198.987 148.598 198.987 148.78Z" fill="#3F3D56"/>
<path d="M201.785 168.904H198.532C197.546 168.904 196.746 169.713 196.746 170.711C196.746 171.71 197.546 172.519 198.532 172.519H201.785C202.771 172.519 203.571 171.71 203.571 170.711C203.571 169.713 202.771 168.904 201.785 168.904Z" fill="#6C63FF"/>
<path d="M238.991 168.904H235.738C234.751 168.904 233.952 169.713 233.952 170.711C233.952 171.71 234.751 172.519 235.738 172.519H238.991C239.977 172.519 240.776 171.71 240.776 170.711C240.776 169.713 239.977 168.904 238.991 168.904Z" fill="#6C63FF"/>
<path d="M249.532 168.904H246.279C245.293 168.904 244.493 169.713 244.493 170.711C244.493 171.71 245.293 172.519 246.279 172.519H249.532C250.518 172.519 251.318 171.71 251.318 170.711C251.318 169.713 250.518 168.904 249.532 168.904Z" fill="#6C63FF"/>
<path d="M228.87 168.604H208.652C207.665 168.604 206.866 169.413 206.866 170.411C206.866 171.409 207.665 172.218 208.652 172.218H228.87C229.857 172.218 230.656 171.409 230.656 170.411C230.656 169.413 229.857 168.604 228.87 168.604Z" fill="#6C63FF"/>
<path d="M278.478 168.604H258.259C257.273 168.604 256.473 169.413 256.473 170.411C256.473 171.409 257.273 172.218 258.259 172.218H278.478C279.464 172.218 280.264 171.409 280.264 170.411C280.264 169.413 279.464 168.604 278.478 168.604Z" fill="#6C63FF"/>
<path d="M211.706 177.062H208.453C207.467 177.062 206.667 177.871 206.667 178.869C206.667 179.867 207.467 180.676 208.453 180.676H211.706C212.693 180.676 213.492 179.867 213.492 178.869C213.492 177.871 212.693 177.062 211.706 177.062Z" fill="#6C63FF"/>
<path d="M248.912 177.062H245.659C244.673 177.062 243.873 177.871 243.873 178.869C243.873 179.867 244.673 180.676 245.659 180.676H248.912C249.898 180.676 250.698 179.867 250.698 178.869C250.698 177.871 249.898 177.062 248.912 177.062Z" fill="#6C63FF"/>
<path d="M259.453 177.062H256.2C255.214 177.062 254.415 177.871 254.415 178.869C254.415 179.867 255.214 180.676 256.2 180.676H259.453C260.44 180.676 261.239 179.867 261.239 178.869C261.239 177.871 260.44 177.062 259.453 177.062Z" fill="#6C63FF"/>
<path d="M238.792 176.76H218.573C217.587 176.76 216.787 177.57 216.787 178.568C216.787 179.566 217.587 180.375 218.573 180.375H238.792C239.778 180.375 240.578 179.566 240.578 178.568C240.578 177.57 239.778 176.76 238.792 176.76Z" fill="#6C63FF"/>
<path d="M288.399 176.76H268.181C267.194 176.76 266.395 177.57 266.395 178.568C266.395 179.566 267.194 180.375 268.181 180.375H288.399C289.386 180.375 290.185 179.566 290.185 178.568C290.185 177.57 289.386 176.76 288.399 176.76Z" fill="#6C63FF"/>
<path d="M221.628 185.22H218.375C217.389 185.22 216.589 186.029 216.589 187.027C216.589 188.025 217.389 188.834 218.375 188.834H221.628C222.614 188.834 223.414 188.025 223.414 187.027C223.414 186.029 222.614 185.22 221.628 185.22Z" fill="#6C63FF"/>
<path d="M258.834 185.22H255.581C254.594 185.22 253.795 186.029 253.795 187.027C253.795 188.025 254.594 188.834 255.581 188.834H258.834C259.82 188.834 260.619 188.025 260.619 187.027C260.619 186.029 259.82 185.22 258.834 185.22Z" fill="#6C63FF"/>
<path d="M269.375 185.22H266.122C265.136 185.22 264.336 186.029 264.336 187.027C264.336 188.025 265.136 188.834 266.122 188.834H269.375C270.361 188.834 271.161 188.025 271.161 187.027C271.161 186.029 270.361 185.22 269.375 185.22Z" fill="#6C63FF"/>
<path d="M248.714 184.918H228.495C227.509 184.918 226.709 185.727 226.709 186.725C226.709 187.723 227.509 188.533 228.495 188.533H248.714C249.7 188.533 250.499 187.723 250.499 186.725C250.499 185.727 249.7 184.918 248.714 184.918Z" fill="#6C63FF"/>
<path d="M298.321 184.918H278.102C277.116 184.918 276.316 185.727 276.316 186.725C276.316 187.723 277.116 188.533 278.102 188.533H298.321C299.307 188.533 300.106 187.723 300.106 186.725C300.106 185.727 299.307 184.918 298.321 184.918Z" fill="#6C63FF"/>
<path d="M231.549 193.377H228.296C227.31 193.377 226.51 194.186 226.51 195.184C226.51 196.182 227.31 196.991 228.296 196.991H231.549C232.536 196.991 233.335 196.182 233.335 195.184C233.335 194.186 232.536 193.377 231.549 193.377Z" fill="#6C63FF"/>
<path d="M268.755 193.377H265.502C264.515 193.377 263.716 194.186 263.716 195.184C263.716 196.182 264.515 196.991 265.502 196.991H268.755C269.741 196.991 270.541 196.182 270.541 195.184C270.541 194.186 269.741 193.377 268.755 193.377Z" fill="#6C63FF"/>
<path d="M279.296 193.377H276.043C275.057 193.377 274.258 194.186 274.258 195.184C274.258 196.182 275.057 196.991 276.043 196.991H279.296C280.283 196.991 281.082 196.182 281.082 195.184C281.082 194.186 280.283 193.377 279.296 193.377Z" fill="#6C63FF"/>
<path d="M258.635 193.076H238.416C237.43 193.076 236.63 193.885 236.63 194.883C236.63 195.881 237.43 196.69 238.416 196.69H258.635C259.621 196.69 260.421 195.881 260.421 194.883C260.421 193.885 259.621 193.076 258.635 193.076Z" fill="#6C63FF"/>
<path d="M238.991 225.814H235.738C234.751 225.814 233.952 226.624 233.952 227.622C233.952 228.62 234.751 229.429 235.738 229.429H238.991C239.977 229.429 240.776 228.62 240.776 227.622C240.776 226.624 239.977 225.814 238.991 225.814Z" fill="#6C63FF"/>
<path d="M249.532 225.814H246.279C245.293 225.814 244.493 226.624 244.493 227.622C244.493 228.62 245.293 229.429 246.279 229.429H249.532C250.518 229.429 251.318 228.62 251.318 227.622C251.318 226.624 250.518 225.814 249.532 225.814Z" fill="#6C63FF"/>
<path d="M278.478 226.115H258.259C257.273 226.115 256.473 226.924 256.473 227.922C256.473 228.92 257.273 229.73 258.259 229.73H278.478C279.464 229.73 280.264 228.92 280.264 227.922C280.264 226.924 279.464 226.115 278.478 226.115Z" fill="#6C63FF"/>
<path d="M201.785 225.814H198.532C197.546 225.814 196.746 226.624 196.746 227.622C196.746 228.62 197.546 229.429 198.532 229.429H201.785C202.771 229.429 203.571 228.62 203.571 227.622C203.571 226.624 202.771 225.814 201.785 225.814Z" fill="#6C63FF"/>
<path d="M228.87 226.115H208.652C207.665 226.115 206.866 226.924 206.866 227.922C206.866 228.92 207.665 229.73 208.652 229.73H228.87C229.857 229.73 230.656 228.92 230.656 227.922C230.656 226.924 229.857 226.115 228.87 226.115Z" fill="#6C63FF"/>
<path d="M211.706 217.656H208.453C207.467 217.656 206.667 218.465 206.667 219.463C206.667 220.461 207.467 221.271 208.453 221.271H211.706C212.693 221.271 213.492 220.461 213.492 219.463C213.492 218.465 212.693 217.656 211.706 217.656Z" fill="#6C63FF"/>
<path d="M248.912 217.656H245.659C244.673 217.656 243.873 218.465 243.873 219.463C243.873 220.461 244.673 221.271 245.659 221.271H248.912C249.898 221.271 250.698 220.461 250.698 219.463C250.698 218.465 249.898 217.656 248.912 217.656Z" fill="#6C63FF"/>
<path d="M259.453 217.656H256.2C255.214 217.656 254.415 218.465 254.415 219.463C254.415 220.461 255.214 221.271 256.2 221.271H259.453C260.44 221.271 261.239 220.461 261.239 219.463C261.239 218.465 260.44 217.656 259.453 217.656Z" fill="#6C63FF"/>
<path d="M238.792 217.958H218.573C217.587 217.958 216.787 218.767 216.787 219.765C216.787 220.763 217.587 221.573 218.573 221.573H238.792C239.778 221.573 240.578 220.763 240.578 219.765C240.578 218.767 239.778 217.958 238.792 217.958Z" fill="#6C63FF"/>
<path d="M221.628 209.5H218.375C217.389 209.5 216.589 210.309 216.589 211.307C216.589 212.305 217.389 213.114 218.375 213.114H221.628C222.614 213.114 223.414 212.305 223.414 211.307C223.414 210.309 222.614 209.5 221.628 209.5Z" fill="#6C63FF"/>
<path d="M258.834 209.5H255.581C254.594 209.5 253.795 210.309 253.795 211.307C253.795 212.305 254.594 213.114 255.581 213.114H258.834C259.82 213.114 260.619 212.305 260.619 211.307C260.619 210.309 259.82 209.5 258.834 209.5Z" fill="#6C63FF"/>
<path d="M269.375 209.5H266.122C265.136 209.5 264.336 210.309 264.336 211.307C264.336 212.305 265.136 213.114 266.122 213.114H269.375C270.361 213.114 271.161 212.305 271.161 211.307C271.161 210.309 270.361 209.5 269.375 209.5Z" fill="#6C63FF"/>
<path d="M248.714 209.8H228.495C227.509 209.8 226.709 210.609 226.709 211.607C226.709 212.606 227.509 213.415 228.495 213.415H248.714C249.7 213.415 250.499 212.606 250.499 211.607C250.499 210.609 249.7 209.8 248.714 209.8Z" fill="#6C63FF"/>
<path d="M231.549 201.342H228.296C227.31 201.342 226.51 202.151 226.51 203.149C226.51 204.147 227.31 204.956 228.296 204.956H231.549C232.536 204.956 233.335 204.147 233.335 203.149C233.335 202.151 232.536 201.342 231.549 201.342Z" fill="#6C63FF"/>
<path d="M268.755 201.342H265.502C264.515 201.342 263.716 202.151 263.716 203.149C263.716 204.147 264.515 204.956 265.502 204.956H268.755C269.741 204.956 270.541 204.147 270.541 203.149C270.541 202.151 269.741 201.342 268.755 201.342Z" fill="#6C63FF"/>
<path d="M279.296 201.342H276.043C275.057 201.342 274.258 202.151 274.258 203.149C274.258 204.147 275.057 204.956 276.043 204.956H279.296C280.283 204.956 281.082 204.147 281.082 203.149C281.082 202.151 280.283 201.342 279.296 201.342Z" fill="#6C63FF"/>
<path d="M258.635 201.643H238.416C237.43 201.643 236.63 202.452 236.63 203.45C236.63 204.449 237.43 205.258 238.416 205.258H258.635C259.621 205.258 260.421 204.449 260.421 203.45C260.421 202.452 259.621 201.643 258.635 201.643Z" fill="#6C63FF"/>
<path d="M217.548 342.975C217.411 343.044 217.275 343.113 217.139 343.176C216.277 343.609 215.408 344.035 214.534 344.456C211.917 345.717 209.268 346.916 206.585 348.051C199.525 351.039 192.282 353.561 184.9 355.6C183.66 347.775 182.457 329.321 181.303 315.748C181.086 313.195 180.869 310.816 180.652 308.714C180.446 305.955 180.055 303.213 179.48 300.507C179.424 300.295 179.343 300.091 179.239 299.898C179.356 300.984 179.48 304.222 179.598 308.714C179.66 310.816 179.716 313.195 179.778 315.748C180.069 328.813 180.373 346.589 180.677 356.711C179.815 356.924 178.947 357.137 178.079 357.338C177.533 357.47 176.981 357.595 176.43 357.715C175.76 357.865 175.09 358.016 174.42 358.154C173.718 358.304 173.017 358.449 172.318 358.587C160.868 360.863 149.225 362.006 137.556 362C136.781 362 136.012 361.994 135.237 361.988C135.001 361.988 134.766 361.981 134.524 361.975C133.842 361.963 133.135 361.95 132.416 361.931C118.625 361.545 104.925 359.547 91.5887 355.976L92.1282 315.748L92.2212 308.714L92.2584 306.048C91.9513 306.905 91.7675 307.804 91.7128 308.714C91.4957 310.427 91.2725 312.856 91.0493 315.748C90.1997 326.893 89.3254 344.87 88.4201 355.098C77.6987 352.011 69.8608 349.193 60.0633 344.236C59.6851 344.048 59.3006 343.853 58.9224 343.659C58.9906 343.176 59.065 342.693 59.1332 342.197C60.2432 334.391 58.9348 324.232 60.1625 315.748C61.0989 309.204 62.0662 302.916 63.0398 297.583C64.2179 291.164 65.4147 286.119 66.5991 283.665C67.9633 280.835 69.3275 278.049 70.6483 275.382L72.3287 272C72.6264 271.404 72.924 270.814 73.2154 270.237C74.5424 267.608 75.795 265.18 76.9422 263.027C77.7483 261.515 78.4924 260.147 79.1745 258.949C79.9744 257.537 80.6813 256.37 81.2642 255.485C85.5695 248.881 91.9755 243.964 99.4205 241.548L99.6065 241.498L99.7863 241.574L99.991 241.668L111.81 237.294L117.087 224.437L144.191 222.749L148.569 226.119L150.807 227.844L153.195 229.683L157.585 233.065L158.831 233.454L160.685 234.031L173.366 237.972L173.497 237.915L173.683 237.966C180.457 240.16 186.388 244.437 190.648 250.201C191.07 250.754 191.461 251.325 191.839 251.902C192.868 253.446 194.257 255.886 195.894 258.949C196.57 260.21 197.283 261.578 198.034 263.027C198.486 263.899 202.393 276.236 206.194 288.836C209.747 300.632 213.207 312.661 213.66 315.748C213.74 316.319 213.827 316.897 213.908 317.468C214.423 321.038 214.931 324.634 215.421 328.141C216.146 333.343 216.853 338.363 217.529 342.849C217.535 342.893 217.542 342.931 217.548 342.975Z" fill="#6C63FF"/>
<path opacity="0.2" d="M188.824 297.554L183.553 276.977L178.903 294.735L188.824 297.554Z" fill="black"/>
<path d="M10.386 297.315C10.6592 298.12 11.1774 298.816 11.8663 299.304C12.5551 299.793 13.3792 300.048 14.2201 300.032L30.6475 299.604C31.4946 299.588 32.3136 299.294 32.9821 298.767C33.6506 298.241 34.1327 297.509 34.3563 296.682L36.681 271.528C37.5058 271.906 38.4037 272.093 39.3089 272.075C40.8974 272.034 42.4049 271.357 43.4999 270.192C44.5948 269.027 45.1876 267.469 45.1477 265.862C45.1078 264.255 44.4386 262.729 43.2872 261.621C42.1358 260.513 40.5966 259.913 39.0082 259.954C38.6464 259.952 38.2855 259.991 37.9317 260.067C37.5467 259.646 37.0789 259.312 36.5584 259.085C36.0379 258.858 35.4761 258.744 34.9094 258.749L9.64007 259.41C9.43049 259.417 9.22198 259.444 9.01688 259.488C8.46273 259.593 7.93715 259.816 7.47552 260.143C7.01388 260.471 6.62689 260.894 6.3406 261.386C6.0543 261.877 5.87533 262.425 5.81575 262.992C5.75617 263.559 5.81735 264.133 5.99517 264.674L10.386 297.315ZM37.1572 269.82L38.8116 263.826C38.9998 263.133 39.0041 262.403 38.824 261.708C38.904 261.708 38.9753 261.669 39.0553 261.669C39.6179 261.656 40.1775 261.755 40.7023 261.96C41.2271 262.166 41.7068 262.474 42.1139 262.867C42.521 263.26 42.8477 263.73 43.0751 264.251C43.3026 264.772 43.4265 265.333 43.4397 265.902C43.4529 266.472 43.3551 267.038 43.152 267.569C42.9489 268.1 42.6444 268.586 42.256 268.998C41.8675 269.41 41.4026 269.74 40.888 269.97C40.3733 270.2 39.8188 270.326 39.2562 270.339C38.5229 270.362 37.7972 270.183 37.1572 269.82Z" fill="#090814"/>
<path d="M9.01666 259.486C9.5549 262.601 15.6076 264.791 22.8856 264.41C29.5783 264.096 35.0499 261.72 36.0526 258.901C35.6817 258.79 35.2959 258.738 34.9092 258.747L9.63986 259.407C9.43026 259.415 9.22174 259.442 9.01666 259.486Z" fill="#090814"/>
<path d="M26.2794 282.48C26.3215 282.469 26.3615 282.452 26.3978 282.427L30.9127 279.437C30.9672 279.401 31.012 279.352 31.0429 279.294C31.0739 279.236 31.0902 279.171 31.0902 279.105C31.0902 279.039 31.0739 278.974 31.0429 278.916C31.012 278.858 30.9672 278.809 30.9127 278.773L26.2198 275.663C26.1328 275.605 26.0268 275.585 25.925 275.606C25.8232 275.627 25.7339 275.689 25.677 275.777C25.62 275.865 25.5999 275.972 25.6211 276.075C25.6423 276.178 25.7031 276.269 25.7901 276.326L29.9813 279.104L25.9681 281.763C25.8909 281.814 25.8341 281.892 25.8078 281.982C25.7816 282.072 25.7875 282.168 25.8246 282.254C25.8617 282.339 25.9276 282.409 26.0105 282.451C26.0935 282.492 26.1883 282.503 26.2781 282.48H26.2794Z" fill="#F2F2F2"/>
<path d="M19.1489 282.812C19.2246 282.793 19.2928 282.751 19.3449 282.692C19.3969 282.633 19.4304 282.56 19.4411 282.482C19.4517 282.403 19.439 282.324 19.4047 282.253C19.3703 282.182 19.3158 282.123 19.2481 282.083L15.0861 279.669L19.1086 276.645C19.1921 276.582 19.2475 276.488 19.2627 276.384C19.2778 276.28 19.2515 276.174 19.1895 276.09C19.1275 276.005 19.0349 275.949 18.932 275.934C18.8292 275.919 18.7245 275.945 18.641 276.008L14.1373 279.393C14.0849 279.432 14.043 279.484 14.0153 279.544C13.9877 279.604 13.9752 279.67 13.979 279.735C13.9828 279.801 14.0028 279.865 14.0372 279.921C14.0715 279.977 14.1192 280.024 14.1758 280.056L18.8575 282.772C18.9458 282.823 19.0503 282.838 19.1489 282.812Z" fill="#F2F2F2"/>
<path d="M25.8304 285.1C25.8683 285.09 25.9045 285.075 25.9377 285.054C25.9817 285.027 26.0201 284.992 26.0505 284.949C26.081 284.907 26.103 284.86 26.1152 284.809C26.1274 284.758 26.1296 284.705 26.1217 284.654C26.1138 284.602 26.0959 284.553 26.0691 284.508L19.6685 273.86C19.6417 273.815 19.6065 273.777 19.5648 273.746C19.5232 273.715 19.476 273.693 19.4259 273.681C19.3758 273.668 19.3238 273.666 19.2729 273.674C19.2219 273.682 19.1731 273.7 19.1291 273.727C19.085 273.755 19.0468 273.79 19.0164 273.832C18.986 273.875 18.9641 273.922 18.9519 273.973C18.9398 274.024 18.9376 274.076 18.9455 274.128C18.9535 274.179 18.9714 274.229 18.9982 274.273L25.3988 284.922C25.4426 284.995 25.5085 285.052 25.5867 285.084C25.6649 285.116 25.7512 285.121 25.8329 285.1H25.8304Z" fill="#F2F2F2"/>
<path d="M487.434 343.655C487.056 343.849 486.671 344.044 486.293 344.232C476.496 349.189 468.658 352.007 457.936 355.094C457.031 344.866 456.157 326.888 455.307 315.744C455.084 312.852 454.861 310.423 454.644 308.71C454.589 307.799 454.405 306.901 454.098 306.043L454.135 308.71L454.228 315.744L454.768 355.972C441.431 359.543 427.731 361.541 413.941 361.927C413.222 361.946 412.515 361.958 411.833 361.971C411.591 361.977 411.355 361.984 411.12 361.984C410.344 361.99 409.576 361.996 408.8 361.996C394.268 362.007 379.788 360.231 365.679 356.706C365.983 346.585 366.287 328.808 366.578 315.744C366.64 313.19 366.696 310.812 366.758 308.71C366.876 304.217 367 300.98 367.118 299.894C367.013 300.086 366.932 300.291 366.876 300.503C366.302 303.208 365.91 305.951 365.704 308.71C365.487 310.812 365.27 313.19 365.053 315.744C363.9 329.317 362.697 347.771 361.457 355.596C354.075 353.556 346.831 351.035 339.772 348.047C336.051 346.478 332.397 344.786 328.809 342.971C329.491 338.453 330.204 333.389 330.936 328.137C331.506 324.065 332.095 319.879 332.697 315.744C333.627 309.356 365.227 240.377 372.674 237.961L372.86 237.911L372.99 237.968L385.671 234.027L387.525 233.45L388.771 233.061L393.162 229.679L395.549 227.84L397.788 226.114L402.165 222.745L429.27 224.433L434.547 237.29L446.366 241.663L446.57 241.569L446.75 241.494L446.936 241.544C454.381 243.96 460.787 248.877 465.092 255.481C465.675 256.365 466.382 257.533 467.182 258.944C467.864 260.143 468.608 261.511 469.414 263.023C470.561 265.175 471.814 267.604 473.141 270.233C473.432 270.81 473.73 271.4 474.028 271.996C474.58 273.1 475.14 274.228 475.708 275.378C477.029 278.045 478.393 280.831 479.757 283.661C480.942 286.114 482.139 291.159 483.317 297.579C484.29 302.912 485.258 309.2 486.194 315.744C487.422 324.228 486.113 334.387 487.223 342.193C487.292 342.691 487.366 343.174 487.434 343.655Z" fill="#6C63FF"/>
<path d="M407.942 218.132C425.351 218.132 439.465 203.85 439.465 186.233C439.465 168.616 425.351 154.334 407.942 154.334C390.532 154.334 376.419 168.616 376.419 186.233C376.419 203.85 390.532 218.132 407.942 218.132Z" fill="#FFB9B9"/>
<path opacity="0.2" d="M357.531 297.554L362.802 276.977L367.453 294.735L357.531 297.554Z" fill="black"/>
<path d="M497.74 284.147C495.855 310.426 497.808 321.997 487.403 343.664C477.936 348.353 468.075 352.179 457.936 355.096C456.882 355.398 455.826 355.69 454.768 355.975C441.431 359.546 427.731 361.544 413.941 361.93C413.222 361.948 412.515 361.961 411.833 361.974C411.591 361.98 411.355 361.986 411.119 361.986C410.344 361.992 409.575 361.999 408.8 361.999C394.268 362.01 379.788 360.233 365.679 356.709C364.265 356.358 362.858 355.987 361.456 355.598C354.075 353.559 346.831 351.038 339.772 348.05C336.051 346.481 332.397 344.789 328.809 342.973C327.996 342.559 327.184 342.145 326.384 341.718C322.273 334.402 319.935 325.504 319.885 314.812C322.732 296.389 491.452 268.259 497.74 284.147Z" fill="#E6E6E6"/>
<path opacity="0.2" d="M497.735 288.647C497.831 287.02 497.939 285.34 498.064 283.59C491.777 267.702 323.056 295.832 320.21 314.255C320.218 315.944 320.289 317.581 320.409 319.184C327.302 301 487.588 274.264 497.735 288.647Z" fill="black"/>
<path d="M321.939 303.234L335.788 296.227L324.248 264.695L321.209 248.794C320.814 246.728 319.89 244.803 318.53 243.212C317.169 241.62 315.42 240.418 313.456 239.725C311.493 239.033 309.384 238.874 307.34 239.264C305.297 239.654 303.391 240.58 301.812 241.95C299.472 243.979 298.003 246.849 297.715 249.953C297.426 253.058 298.341 256.154 300.266 258.589L311.556 272.87L321.939 303.234Z" fill="#FFB9B9"/>
<path d="M329.538 272.54L311.073 281.883L325.087 326.314C326.094 329.505 327.898 332.378 330.324 334.656C332.751 336.933 335.718 338.537 338.938 339.313C342.908 340.269 347.076 339.921 350.837 338.319C354.599 336.717 357.758 333.944 359.858 330.403L397.015 265.953C399.649 261.512 400.461 256.205 399.279 251.165C398.097 246.126 395.015 241.754 390.691 238.983C388.365 237.492 385.755 236.513 383.031 236.111C380.307 235.708 377.529 235.891 374.88 236.646C372.23 237.402 369.767 238.714 367.651 240.496C365.536 242.279 363.815 244.492 362.6 246.993L339.926 295.897L329.538 272.54Z" fill="#6C63FF"/>
<path d="M130.485 215.931C149.64 215.931 165.169 200.216 165.169 180.832C165.169 161.448 149.64 145.734 130.485 145.734C111.329 145.734 95.7998 161.448 95.7998 180.832C95.7998 200.216 111.329 215.931 130.485 215.931Z" fill="#FFB9B9"/>
<path d="M96.2159 156.646C99.036 152.8 103.09 150.065 106.19 146.446C107.891 144.461 109.303 142.211 111.216 140.434C114.77 137.131 119.739 135.778 124.561 135.61C129.845 135.472 135.087 136.595 139.863 138.889C144.639 141.182 148.814 144.581 152.05 148.811L159.611 144.325L162.598 152.281C163.416 151.563 164.458 151.16 165.541 151.145C166.623 151.129 167.676 151.502 168.513 152.197C169.35 152.893 169.916 153.865 170.112 154.943C170.308 156.02 170.121 157.133 169.583 158.084C170.183 156.209 172.932 155.811 174.446 157.05C175.96 158.288 176.368 160.493 176.12 162.446C175.81 164.591 174.873 166.593 173.429 168.195C171.985 169.797 170.101 170.925 168.019 171.435C164.732 172.177 160.902 171.398 158.269 173.526C156.161 175.233 155.521 178.34 153.37 179.989C150.716 182.022 146.965 181.082 143.666 181.531C137.894 182.318 133.324 188.291 134.017 194.144C133.495 192.298 132.946 190.398 131.761 188.898C130.575 187.398 128.579 186.384 126.762 186.935C123.757 187.847 123.265 191.992 123.993 195.079C125.925 203.268 133.245 216.504 133.245 216.504C123.74 220.297 112.416 216.71 105.083 209.511C97.75 202.312 93.9302 192.118 92.2665 181.917C90.8533 173.269 91.0536 163.687 96.2159 156.646Z" fill="#090814"/>
<path d="M447.447 203.818C454.046 188.507 450.307 174.42 442.263 166.947V166.94C439.1 159.768 434.896 154.234 430.084 152.935C427.759 151.423 425.502 149.647 422.996 148.743C421.829 148.301 420.586 148.103 419.341 148.16C418.097 148.217 416.876 148.529 415.754 149.076L414.476 148.731C411.654 148.322 414.407 148.97 410.706 147.714C405.262 145.148 400.357 144 395.991 144C381.754 144 373.333 156.198 371.101 170.944L383 174.15L387.137 167.48L385.227 174.753L391.793 176.516C401.789 189.687 389.828 220.069 374.666 236.974C378.275 235.964 381.87 235.11 385.45 234.414L398.459 215.112L390.398 232.682C394.584 232.061 399.923 232.657 405.758 233.855C407.724 231.257 408.759 227.794 407.742 224.707C409.405 227.962 410.551 231.463 411.14 235.079C423.455 238.122 440.253 239.685 449.307 240.839C456.621 238.426 456.641 211.134 447.447 203.818Z" fill="#090814"/>
<path d="M451.739 151.742C456.573 162.693 446.82 167.404 437.886 167.27C429.813 167.15 422.951 161.411 422.54 153.252C422.342 149.334 423.69 145.496 426.288 142.584C428.886 139.672 432.521 137.923 436.393 137.723C444.456 137.306 448.45 144.282 451.739 151.742Z" fill="#090814"/>
<path d="M227.036 333.219L218.701 318.676L246.419 296.681L257.942 283.955C259.411 282.311 261.29 281.099 263.381 280.445C265.473 279.791 267.7 279.72 269.829 280.239C271.973 280.786 273.938 281.895 275.526 283.453C277.114 285.012 278.269 286.965 278.876 289.117C280.826 295.832 277.339 302.95 270.993 305.217L253.086 311.613L227.036 333.219Z" fill="#FFB9B9"/>
<path d="M233.267 329.578L220.871 340.032L217.529 342.849L217.138 343.175C216.276 343.608 215.408 344.035 214.534 344.455C211.917 345.717 209.267 346.915 206.584 348.051C199.525 351.039 192.282 353.56 184.9 355.599C183.498 355.988 182.091 356.359 180.677 356.71C179.815 356.923 178.947 357.137 178.079 357.338C177.533 357.469 176.981 357.595 176.429 357.714C175.76 357.865 175.09 358.015 174.42 358.153C173.718 358.304 173.017 358.448 172.318 358.586C170.433 356.771 168.932 354.587 167.906 352.166C166.881 349.745 166.352 347.139 166.353 344.506C166.353 344.336 166.353 344.16 166.359 343.985L168.35 292.324L169.23 269.427C169.366 264.249 171.497 259.33 175.169 255.721C178.841 252.112 183.762 250.099 188.881 250.113C189.476 250.113 190.065 250.144 190.648 250.201C191.07 250.753 191.46 251.324 191.839 251.901C192.868 253.445 194.257 255.886 195.894 258.948C196.57 260.209 197.283 261.577 198.033 263.027C198.486 263.899 202.393 276.235 206.194 288.835L204.519 301.993L201.493 325.712L213.908 317.467L222.651 311.657L223.686 313.407L226.384 317.963L231.593 326.748L233.267 329.578Z" fill="#6C63FF"/>
<path d="M226.471 314.813C226.465 315.879 226.44 316.927 226.384 317.963C226.255 320.819 225.927 323.662 225.404 326.471C224.548 331.189 223.022 335.757 220.871 340.031C220.586 340.602 220.282 341.167 219.972 341.719C219.172 342.146 218.36 342.56 217.548 342.974C217.411 343.043 217.275 343.112 217.138 343.175C213.684 344.913 210.167 346.538 206.584 348.051C199.525 351.038 192.282 353.56 184.9 355.599C183.498 355.988 182.091 356.358 180.677 356.71C177.918 357.4 175.131 358.025 172.318 358.586C160.868 360.862 149.225 362.005 137.556 362C136.781 362 136.012 361.993 135.237 361.987C135.001 361.987 134.766 361.981 134.524 361.974C133.842 361.962 133.135 361.949 132.415 361.931C118.625 361.545 104.925 359.546 91.5886 355.976C90.5283 355.693 89.4721 355.401 88.42 355.097C78.2817 352.179 68.4204 348.353 58.9533 343.664C48.5481 321.997 50.5014 310.427 48.6163 284.148C52.4857 274.365 117.949 281.274 168.35 292.324C182.029 295.323 194.592 298.63 204.52 301.993C214.776 305.463 222.211 308.99 225.125 312.303C225.806 312.989 226.274 313.861 226.471 314.813Z" fill="#E6E6E6"/>
<path opacity="0.2" d="M48.6202 288.647C48.5241 287.02 48.4162 285.34 48.291 283.59C54.5787 267.702 223.299 295.832 226.145 314.255C226.137 315.944 226.066 317.581 225.946 319.184C219.053 301 58.7662 274.264 48.6202 288.647Z" fill="black"/>
</svg>
